HIERARCHY
ROOT Hips
{
	OFFSET -3.958830 18.904000 13.208200
	CHANNELS 6 Xposition Yposition Zposition Zrotation Yrotation Xrotation 
	JOINT LHipJoint
	{
		OFFSET 0.000000 0.000000 0.000000
		CHANNELS 3 Zrotation Yrotation Xrotation
		JOINT LeftUpLeg
		{
			OFFSET 1.800000 -1.400000 0.085000
			CHANNELS 3 Zrotation Yrotation Xrotation
			JOINT LeftLeg
			{
				OFFSET 2.215000 -6.000000 0.000000
				CHANNELS 3 Zrotation Yrotation Xrotation
				JOINT LeftFoot
				{
					OFFSET 2.500000 -6.900000 0.000000
					CHANNELS 3 Zrotation Yrotation Xrotation
					JOINT LeftToeBase
					{
						OFFSET 0.200000 -0.500000 1.950000
						CHANNELS 3 Zrotation Yrotation Xrotation
						End Site
						{
							OFFSET 0.000000 0.000000 0.000000
						}
					}
				}
			}
		}
	}
	JOINT RHipJoint
	{
		OFFSET 0.000000 0.000000 0.000000
		CHANNELS 3 Zrotation Yrotation Xrotation
		JOINT RightUpLeg
		{
			OFFSET -1.800000 -1.400000 0.085000
			CHANNELS 3 Zrotation Yrotation Xrotation
			JOINT RightLeg
			{
				OFFSET -2.215000 -6.000000 0.000000
				CHANNELS 3 Zrotation Yrotation Xrotation
				JOINT RightFoot
				{
					OFFSET -2.500000 -6.900000 0.000000
					CHANNELS 3 Zrotation Yrotation Xrotation
					JOINT RightToeBase
					{
						OFFSET -0.200000 -0.500000 1.950000
						CHANNELS 3 Zrotation Yrotation Xrotation
						End Site
						{
							OFFSET 0.000000 0.000000 0.000000
						}
					}
				}
			}
		}
	}
	JOINT LowerBack
	{
		OFFSET 0.000000 0.000000 0.000000
		CHANNELS 3 Zrotation Yrotation Xrotation
		JOINT Spine
		{
			OFFSET -0.087000 1.940000 -0.288900
			CHANNELS 3 Zrotation Yrotation Xrotation
			JOINT Spine1
			{
				OFFSET 0.000000 1.950000 0.060000
				CHANNELS 3 Zrotation Yrotation Xrotation
				JOINT Neck
				{
					OFFSET 0.000000 0.000000 0.000000
					CHANNELS 3 Zrotation Yrotation Xrotation
					JOINT Neck1
					{
						OFFSET 0.000000 1.600000 0.340000
						CHANNELS 3 Zrotation Yrotation Xrotation
						JOINT Head
						{
							OFFSET 0.000000 1.667000 -0.240000
							CHANNELS 3 Zrotation Yrotation Xrotation
							End Site
							{
								OFFSET 0.000000 0.000000 0.000000
							}
						}
					}
				}
				JOINT LeftShoulder
				{
					OFFSET 0.000000 0.000000 0.000000
					CHANNELS 3 Zrotation Yrotation Xrotation
					JOINT LeftArm
					{
						OFFSET 2.700000 1.550000 -0.730000
						CHANNELS 3 Zrotation Yrotation Xrotation
						JOINT LeftForeArm
						{
							OFFSET 5.450000 0.000000 0.000000
							CHANNELS 3 Zrotation Yrotation Xrotation
							JOINT LeftHand
							{
								OFFSET 3.450000 0.000000 0.000000
								CHANNELS 3 Zrotation Yrotation Xrotation
								JOINT LeftHandIndex1
								{
									OFFSET 0.750000 0.000000 0.000000
									CHANNELS 3 Zrotation Yrotation Xrotation
									End Site
									{
										OFFSET 0.000000 0.000000 0.000000
									}
								}
							}
						}
					}
				}
				JOINT RightShoulder
				{
					OFFSET 0.000000 0.000000 0.000000
					CHANNELS 3 Zrotation Yrotation Xrotation
					JOINT RightArm
					{
						OFFSET -2.700000 1.550000 -0.730000
						CHANNELS 3 Zrotation Yrotation Xrotation
						JOINT RightForeArm
						{
							OFFSET -5.450000 0.000000 0.000000
							CHANNELS 3 Zrotation Yrotation Xrotation
							JOINT RightHand
							{
								OFFSET -3.450000 0.000000 0.000000
								CHANNELS 3 Zrotation Yrotation Xrotation
								JOINT RightHandIndex1
								{
									OFFSET -0.750000 0.000000 0.000000
									CHANNELS 3 Zrotation Yrotation Xrotation
									End Site
									{
										OFFSET 0.000000 0.000000 0.000000
									}
								}
							}
						}
					}
				}
			}
		}
	}
}
MOTION
Frames: 9
Frame Time: 0.016667
-0.299420 16.563660 -2.589220 -0.730982 -32.407228 9.039918 -15.736733 14.095719 3.936447 14.697456 -4.207386 -8.031185 -15.666552 5.692294 1.786756 0.427451 5.469421 2.871262 -0.366480 -0.384670 -0.404180 17.753764 -8.574275 2.801437 -14.097358 0.081515 -36.140288 -6.060999 -1.402401 6.496229 0.440405 -1.736304 3.853249 -0.137460 0.610750 -0.004090 -1.786138 -7.386835 -7.721722 0.654676 -10.793005 8.595171 3.801659 -9.821403 -15.862832 0.346207 -8.460009 -4.555546 -18.537835 17.299978 17.754628 1.426410 17.234010 12.228560 6.481312 21.182397 0.902178 -20.835078 -1.167757 -0.967882 6.391787 -13.397732 -0.262482 -4.101647 3.408762 -0.211140 0.449620 -0.418600 0.096240 -2.549504 -20.883281 -2.385191 68.154882 -63.825787 -20.486934 -146.591101 40.490294 -132.156743 0.757572 -3.706880 -0.253550 0.091630 0.209220 0.049520 
-0.334380 16.563330 -2.585400 -0.800488 -32.290045 9.170683 -15.729431 14.115988 3.946577 14.992809 -4.233974 -8.163748 -15.576731 5.738316 1.971672 0.430712 5.470150 2.867663 -0.374660 -0.400190 -0.405830 17.749882 -8.600970 2.796107 -13.910851 0.185912 -36.019131 -6.119835 -1.385612 6.772859 0.442630 -1.716418 3.861440 -0.151410 0.604680 -0.006830 -1.777331 -7.380829 -7.732200 0.653066 -10.604029 8.588208 4.151211 -9.559310 -16.479696 0.322196 -8.526307 -4.503314 -18.738178 16.983250 18.039416 1.380490 16.932610 12.447640 6.530441 21.249028 0.938242 -20.594650 -1.192379 -0.901054 5.462012 -13.614295 -0.155626 -4.073659 3.425264 -0.204110 0.440210 -0.416240 0.092900 -2.454407 -20.891397 -2.598166 70.142137 -64.241920 -21.306184 -144.101962 38.947596 -126.931395 0.750836 -3.691731 -0.253100 0.087790 0.211340 0.049000 
-0.403940 16.558750 -2.571750 -1.128696 -32.038058 9.705180 -15.731614 14.144407 3.989412 15.702997 -4.325793 -8.577694 -15.518643 5.801986 2.173159 0.440974 5.480701 2.854985 -0.396000 -0.429830 -0.426540 17.727896 -8.623897 2.791500 -13.381321 0.476785 -35.749230 -6.238515 -1.315122 7.083451 0.454697 -1.662498 3.890745 -0.176780 0.601130 -0.017700 -1.719079 -7.402255 -7.767822 0.515197 -9.855206 8.399850 5.550548 -8.614315 -17.915636 0.124342 -8.659930 -4.278018 -19.259464 16.120472 18.743793 1.633670 15.774810 13.054290 6.284322 21.156725 1.048649 -20.357468 -1.885510 -0.611209 3.819161 -13.618398 0.039106 -4.019339 3.449173 -0.197200 0.423370 -0.418270 0.089360 -1.557185 -20.609284 -2.969745 75.736389 -65.305682 -24.203154 -137.968243 33.465702 -111.826721 0.730279 -3.596023 -0.252140 0.087740 0.221900 0.055690 
-0.491480 16.554780 -2.544300 -1.400038 -31.901291 10.114560 -15.727354 14.160815 4.024549 16.403268 -4.310254 -8.665763 -15.320344 5.827757 2.134753 0.450297 5.489637 2.844276 -0.400550 -0.440250 -0.427690 17.710643 -8.689671 2.763432 -13.021640 0.798585 -35.087726 -6.080188 -1.270119 7.567645 0.459660 -1.624887 3.911820 -0.189880 0.588390 -0.023880 -1.682835 -7.309653 -7.799617 0.485969 -9.065634 7.860100 7.088560 -7.633762 -19.183244 -0.352988 -8.740810 -3.986742 -19.991761 15.597935 19.915176 1.570910 15.101070 13.501770 5.471723 20.783428 1.262070 -20.635084 -1.714145 -0.576268 3.669182 -14.160615 0.074056 -3.997686 3.443011 -0.186710 0.408040 -0.410760 0.087180 0.301009 -19.795629 -3.431785 74.614038 -63.435307 -24.467599 -134.379777 27.522065 -90.322300 1.021979 -3.283727 -0.248680 0.086000 0.221710 0.056370 
-0.576480 16.549100 -2.514920 -1.412171 -31.531743 9.723480 -15.715549 14.244212 3.994843 16.829549 -4.087522 -8.417641 -14.872919 6.020576 2.811559 0.445046 5.484937 2.828931 -0.374330 -0.422560 -0.383630 17.694061 -8.846629 2.676106 -12.956043 0.959667 -33.797351 -5.644770 -1.322711 8.671041 0.446001 -1.628477 3.904821 -0.189260 0.539760 -0.022160 -1.631434 -7.154822 -7.785144 -0.026607 -8.161472 7.363658 7.955776 -6.741373 -19.084244 -0.685180 -8.200055 -3.844942 -19.633343 15.010686 22.340381 1.109090 14.680600 13.244080 4.277139 20.687441 0.767460 -21.020732 -2.734116 -0.462073 5.241695 -15.346117 -0.072415 -3.998514 3.407866 -0.162820 0.381540 -0.380190 0.077740 2.026471 -19.577258 -2.996454 70.957803 -59.243670 -23.300568 -135.987961 25.728236 -81.950145 1.287539 -3.157550 -0.234870 0.070320 0.201060 0.040110 
-0.669350 16.533190 -2.494050 -1.192138 -30.969049 9.005653 -15.693135 14.298762 3.908459 17.048731 -3.807883 -8.072994 -14.264268 6.220854 3.628740 0.408567 5.488407 2.819058 -0.337910 -0.388330 -0.341150 17.701047 -9.004593 2.585503 -13.255879 0.927153 -32.463794 -5.788855 -1.297996 8.926073 0.429737 -1.679755 3.879798 -0.160360 0.519770 -0.017430 -1.655299 -6.936998 -7.711253 -0.329892 -7.765890 6.839422 8.136088 -6.438941 -18.164708 -1.272384 -7.740189 -3.913772 -19.340736 15.196551 24.119229 0.911380 14.721770 12.735100 2.972464 20.490553 0.297938 -21.755325 -3.155620 -0.556912 8.834111 -17.245016 -0.568001 -4.054722 3.350726 -0.149190 0.378780 -0.365600 0.075240 4.165923 -19.327101 -2.385963 63.137627 -52.824091 -19.114541 -139.588110 25.427697 -78.383600 1.541125 -2.999571 -0.235580 0.075160 0.186430 0.023100 
-0.760870 16.515130 -2.476390 -0.781331 -30.516429 8.069276 -15.646654 14.350240 3.804517 17.097075 -3.484884 -7.737306 -13.586370 6.416565 4.544598 0.365741 5.467369 2.812675 -0.294090 -0.344030 -0.286040 17.732027 -9.183128 2.506050 -13.706287 0.877797 -31.508782 -5.404720 -1.426066 10.071199 0.405383 -1.759934 3.833556 -0.128190 0.488840 -0.005450 -1.751638 -6.676805 -7.619876 -0.393952 -7.698641 6.815135 7.267933 -6.540608 -16.840681 -1.427991 -7.344838 -4.332459 -18.585676 15.725303 25.208346 0.403260 15.550850 11.653760 1.577532 20.284312 -0.526273 -21.786111 -3.292797 -0.782940 13.389532 -19.017827 -1.238760 -4.118114 3.285624 -0.132450 0.375410 -0.341670 0.068640 5.516898 -19.141622 -1.101613 56.829776 -45.642285 -14.660438 -143.772991 28.064679 -85.007118 1.694988 -2.875105 -0.231040 0.071340 0.167470 -0.000070 
-0.859360 16.500970 -2.455590 -0.439972 -29.731791 6.802045 -15.608268 14.432761 3.680999 17.283851 -3.057477 -7.270633 -12.611589 6.650628 5.752549 0.307032 5.457584 2.800197 -0.233810 -0.280450 -0.220710 17.747329 -9.421761 2.386545 -14.144451 0.765506 -30.006392 -4.760372 -1.662050 11.730080 0.375404 -1.894297 3.765515 -0.077480 0.457410 0.006620 -1.787823 -6.391799 -7.510096 -0.710965 -7.380880 6.835177 6.280709 -6.491247 -15.442469 -1.398771 -6.933935 -4.234346 -17.871937 16.166881 26.753003 -0.135260 16.014580 10.310980 -0.681973 20.212361 -1.566396 -22.301172 -3.743302 -0.923177 21.056849 -23.756172 -2.814390 -4.179781 3.219322 -0.117190 0.373730 -0.317050 0.064660 7.292687 -18.966898 -0.355263 49.970770 -39.099517 -10.117200 -147.262961 29.400506 -90.164029 1.793599 -2.797533 -0.227010 0.076910 0.145120 -0.024420 
-0.956330 16.499010 -2.428130 -0.406566 -28.736963 5.637758 -15.578196 14.560631 3.606597 17.723860 -2.680887 -6.927186 -11.504223 6.806373 6.819117 0.263196 5.439439 2.790396 -0.187380 -0.233930 -0.181420 17.739653 -9.662111 2.264345 -14.196998 0.715412 -28.416329 -4.063354 -2.002737 14.230094 0.347755 -2.072592 3.689747 -0.042760 0.429020 0.009570 -1.758001 -6.225660 -7.464698 -0.758098 -6.573455 7.161460 5.561694 -5.837252 -14.749141 -0.939229 -6.854609 -4.079454 -18.216798 16.081947 28.457092 -0.370120 15.353290 9.617620 -3.346960 19.978102 -2.732982 -22.927255 -5.659367 -0.603849 28.857465 -27.885530 -4.908756 -4.191913 3.149920 -0.101590 0.359540 -0.298090 0.065140 8.799393 -18.401314 0.591148 43.638615 -37.570273 -7.531294 -149.722203 30.159996 -96.293045 1.870966 -2.777497 -0.220170 0.082940 0.129640 -0.036060 
